<svg width="127" height="103" viewBox="0 0 127 103" fill="none" xmlns="http://www.w3.org/2000/svg">
<path d="M63.4534 0.5L120.984 97.3304H5.92236L63.4534 0.5Z" fill="#FF007A"/>
<path d="M63.4534 0.5L120.984 97.3304H5.92236L63.4534 0.5Z" fill="#FF007A"/>
<path d="M63.4534 0.5L120.984 97.3304H5.92236L63.4534 0.5Z" fill="#FF007A"/>
<path d="M98.9871 54.3882L120.984 97.3303H76.99L98.9871 54.3882Z" fill="#FF007A"/>
<path d="M98.9871 54.3882L120.984 97.3303H76.99L98.9871 54.3882Z" fill="#FF007A"/>
<path d="M98.9871 54.3882L120.984 97.3303H76.99L98.9871 54.3882Z" fill="#FF007A"/>
<path d="M104.909 61.1241L126.907 97.3303H82.9124L104.909 61.1241Z" fill="#FF007A"/>
<path d="M104.909 61.1241L126.907 97.3303H82.9124L104.909 61.1241Z" fill="#FF007A"/>
<path d="M104.909 61.1241L126.907 97.3303H82.9124L104.909 61.1241Z" fill="#FF007A"/>
<path d="M33.8418 31.6542L67.6835 97.3304H0L33.8418 31.6542Z" fill="#FF007A"/>
<path d="M33.8418 31.6542L67.6835 97.3304H0L33.8418 31.6542Z" fill="#FF007A"/>
<path d="M33.8418 31.6542L67.6835 97.3304H0L33.8418 31.6542Z" fill="#FF007A"/>
<rect width="7.31306" height="6.40758" transform="matrix(0.913742 0.406295 -0.409551 0.912287 98.2272 58.153)" fill="#FF007A"/>
<rect width="7.31306" height="6.40758" transform="matrix(0.913742 0.406295 -0.409551 0.912287 98.2272 58.153)" fill="#FF007A"/>
<rect width="7.31306" height="6.40758" transform="matrix(0.913742 0.406295 -0.409551 0.912287 98.2272 58.153)" fill="#FF007A"/>
<rect width="6.88607" height="5.29445" transform="matrix(0.913742 0.406295 -0.409551 0.912287 92.6951 51.5905)" fill="#FF007A"/>
<rect width="6.88607" height="5.29445" transform="matrix(0.913742 0.406295 -0.409551 0.912287 92.6951 51.5905)" fill="#FF007A"/>
<rect width="6.88607" height="5.29445" transform="matrix(0.913742 0.406295 -0.409551 0.912287 92.6951 51.5905)" fill="#FF007A"/>
<rect width="18.9479" height="17.543" transform="matrix(0.901341 -0.43311 0.436486 0.899711 33.8418 36.4927)" fill="#FF007A"/>
<rect width="18.9479" height="17.543" transform="matrix(0.901341 -0.43311 0.436486 0.899711 33.8418 36.4927)" fill="#FF007A"/>
<rect width="18.9479" height="17.543" transform="matrix(0.901341 -0.43311 0.436486 0.899711 33.8418 36.4927)" fill="#FF007A"/>
<path d="M63.0518 4.1958L118.762 95.852H7.34143L63.0518 4.1958Z" fill="black"/>
<path d="M63.0518 4.1958L118.762 95.852H7.34143L63.0518 4.1958Z" fill="black"/>
<path d="M63.0518 4.1958L118.762 95.852H7.34143L63.0518 4.1958Z" fill="black"/>
<path d="M97.4611 55.2046L118.762 95.8521H76.16L97.4611 55.2046Z" fill="black"/>
<path d="M97.4611 55.2046L118.762 95.8521H76.16L97.4611 55.2046Z" fill="black"/>
<path d="M97.4611 55.2046L118.762 95.8521H76.16L97.4611 55.2046Z" fill="black"/>
<path d="M103.196 61.5806L124.497 95.852H81.895L103.196 61.5806Z" fill="black"/>
<path d="M103.196 61.5806L124.497 95.852H81.895L103.196 61.5806Z" fill="black"/>
<path d="M103.196 61.5806L124.497 95.852H81.895L103.196 61.5806Z" fill="black"/>
<path d="M34.3773 33.6853L67.1481 95.8521H1.60645L34.3773 33.6853Z" fill="black"/>
<path d="M34.3773 33.6853L67.1481 95.8521H1.60645L34.3773 33.6853Z" fill="black"/>
<path d="M34.3773 33.6853L67.1481 95.8521H1.60645L34.3773 33.6853Z" fill="black"/>
<rect width="7.05558" height="6.08883" transform="matrix(0.917116 0.39862 -0.417352 0.908745 96.7252 58.7681)" fill="black"/>
<rect width="7.05558" height="6.08883" transform="matrix(0.917116 0.39862 -0.417352 0.908745 96.7252 58.7681)" fill="black"/>
<rect width="7.05558" height="6.08883" transform="matrix(0.917116 0.39862 -0.417352 0.908745 96.7252 58.7681)" fill="black"/>
<rect width="6.64362" height="5.03108" transform="matrix(0.917116 0.39862 -0.417352 0.908745 91.3682 52.5562)" fill="black"/>
<rect width="6.64362" height="5.03108" transform="matrix(0.917116 0.39862 -0.417352 0.908745 91.3682 52.5562)" fill="black"/>
<rect width="6.64362" height="5.03108" transform="matrix(0.917116 0.39862 -0.417352 0.908745 91.3682 52.5562)" fill="black"/>
<rect width="18.2716" height="16.6791" transform="matrix(0.905127 -0.425142 0.444566 0.895746 34.3773 38.2651)" fill="black"/>
<rect width="18.2716" height="16.6791" transform="matrix(0.905127 -0.425142 0.444566 0.895746 34.3773 38.2651)" fill="black"/>
<rect width="18.2716" height="16.6791" transform="matrix(0.905127 -0.425142 0.444566 0.895746 34.3773 38.2651)" fill="black"/>
<path d="M61.4453 12.3267L113.514 94.3738H9.3761L61.4453 12.3267Z" fill="#4C4151"/>
<path d="M93.6056 57.9877L113.514 94.3738H73.6968L93.6056 57.9877Z" fill="#4C4151"/>
<path d="M98.9657 63.6952L118.875 94.3737H79.0569L98.9657 63.6952Z" fill="#4C4151"/>
<path d="M34.6449 38.7245L65.2739 94.3738H4.01599L34.6449 38.7245Z" fill="#4C4151"/>
<rect width="6.55096" height="5.49311" transform="matrix(0.923202 0.384316 -0.432377 0.901693 92.9178 61.1776)" fill="#4C4151"/>
<rect width="6.16846" height="4.53885" transform="matrix(0.923202 0.384316 -0.432377 0.901693 87.9109 55.6169)" fill="#4C4151"/>
<rect width="16.9492" height="15.0629" transform="matrix(0.911968 -0.410262 0.460092 0.887871 34.6449 42.8241)" fill="#4C4151"/>
<path d="M56.3237 86.7724L61.8317 38.222L109.335 95.1376L56.3237 86.7724Z" fill="black"/>
<path d="M110.97 95.6394L67.3429 95.2326L70.0617 81.7221L110.97 95.6394Z" fill="black"/>
<path d="M61.7819 38.2222L70.7814 95.0943L53.1108 95.1377L61.7819 38.2222Z" fill="black"/>
<path d="M54.618 32.2841L67.4693 94.3738H41.7667L54.618 32.2841Z" fill="black"/>
<path d="M71.7854 55.0822L98.7618 59.7556L98.4181 61.2012L71.7854 55.0822Z" fill="black"/>
<path d="M95.7317 78.1384L90.0915 53.416L91.6742 53.1545L95.7317 78.1384Z" fill="black"/>
<path d="M53.0116 93.6345L54.744 32.2839L66.6661 33.5488L53.0116 93.6345Z" fill="#DBDBDB"/>
<path d="M108.307 93.7958L57.7276 35.8473L67.7911 29.4965L108.307 93.7958Z" fill="#DBDBDB"/>
<path d="M62.2171 19.741L71.7081 35.887L55.9355 37.164L62.2171 19.741Z" fill="#DBDBDB"/>
<rect width="6.16293" height="4.20739" transform="matrix(0.737251 -0.675618 0.734412 0.678704 54.7931 32.4705)" fill="#DBDBDB"/>
<rect x="28.9154" y="76.6338" width="20.0802" height="18.1095" fill="black"/>
<path d="M28.6558 76.7765L48.1163 67.18L50.5876 79.1132L28.6558 76.7765Z" fill="black"/>
<path d="M28.6568 76.7393L46.3268 95.583L10.1634 94.9015L28.6568 76.7393Z" fill="black"/>
<path d="M29.9033 76.2612L29.0825 77.265L28.6426 76.7431L29.9033 76.2612Z" fill="black"/>
<path d="M7.74831 94.9264L24.0599 73.3765L25.2918 73.9243L7.74831 94.9264Z" fill="black"/>
<path d="M41.7667 52.2415L25.0383 74.246L23.7795 73.6888L41.7667 52.2415Z" fill="black"/>
<path d="M68.1242 40.8444L54.7291 32.1766L58.5128 28.6438L68.1242 40.8444Z" fill="#A2A2A2"/>
</svg>
